<?xml version="1.0" encoding="UTF-8" standalone="no"?>
<!DOCTYPE svg PUBLIC "-//W3C//DTD SVG 1.1//EN"
 "http://www.w3.org/Graphics/SVG/1.1/DTD/svg11.dtd">
<!-- Generated by graphviz version 2.40.1 (20161225.0304)
 -->
<!-- Title: pipeline Pages: 1 -->
<svg width="1406pt" height="1102pt"
 viewBox="0.00 0.00 1406.07 1102.20" xmlns="http://www.w3.org/2000/svg" xmlns:xlink="http://www.w3.org/1999/xlink">
<g id="graph0" class="graph" transform="scale(1 1) rotate(0) translate(4 1098.2)">
<title>pipeline</title>
<polygon fill="#ffffff" stroke="transparent" points="-4,4 -4,-1098.2 1402.0704,-1098.2 1402.0704,4 -4,4"/>
<!-- v0 -->
<g id="node1" class="node">
<title>v0</title>
<ellipse fill="#000000" stroke="#000000" cx="1033.4856" cy="-1075.6" rx="3.6" ry="3.6"/>
<text text-anchor="middle" x="979.8856" y="-1083" font-family="Times,serif" font-size="14.00" fill="#000000">Channel.fromPath</text>
</g>
<!-- v1 -->
<g id="node2" class="node">
<title>v1</title>
<ellipse fill="none" stroke="#000000" cx="1033.4856" cy="-1003" rx="3.5" ry="3.5"/>
<text text-anchor="middle" x="1017.4856" y="-1010.3" font-family="Times,serif" font-size="14.00" fill="#000000">map</text>
</g>
<!-- v0&#45;&gt;v1 -->
<g id="edge1" class="edge">
<title>v0&#45;&gt;v1</title>
<path fill="none" stroke="#000000" d="M1033.4856,-1071.6967C1033.4856,-1061.5576 1033.4856,-1033.997 1033.4856,-1017.0256"/>
<polygon fill="#000000" stroke="#000000" points="1036.9857,-1016.5754 1033.4856,-1006.5755 1029.9857,-1016.5755 1036.9857,-1016.5754"/>
</g>
<!-- v2 -->
<g id="node3" class="node">
<title>v2</title>
<ellipse fill="none" stroke="#000000" cx="1033.4856" cy="-944.4" rx="3.5" ry="3.5"/>
<text text-anchor="middle" x="1011.4856" y="-951.7" font-family="Times,serif" font-size="14.00" fill="#000000">branch</text>
</g>
<!-- v1&#45;&gt;v2 -->
<g id="edge2" class="edge">
<title>v1&#45;&gt;v2</title>
<path fill="none" stroke="#000000" d="M1033.4856,-999.1551C1033.4856,-990.9672 1033.4856,-971.4661 1033.4856,-958.092"/>
<polygon fill="#000000" stroke="#000000" points="1036.9857,-958.0325 1033.4856,-948.0325 1029.9857,-958.0325 1036.9857,-958.0325"/>
</g>
<!-- v4 -->
<g id="node4" class="node">
<title>v4</title>
<ellipse fill="none" stroke="#000000" cx="1081.4856" cy="-871.8" rx="33.5952" ry="18"/>
<text text-anchor="middle" x="1081.4856" y="-868.1" font-family="Times,serif" font-size="14.00" fill="#000000">fastcat</text>
</g>
<!-- v2&#45;&gt;v4 -->
<g id="edge3" class="edge">
<title>v2&#45;&gt;v4</title>
<path fill="none" stroke="#000000" d="M1035.5481,-941.2805C1040.5142,-933.7693 1053.5332,-914.078 1064.4486,-897.5685"/>
<polygon fill="#000000" stroke="#000000" points="1067.6361,-899.0935 1070.2317,-888.8215 1061.7969,-895.2328 1067.6361,-899.0935"/>
</g>
<!-- v6 -->
<g id="node5" class="node">
<title>v6</title>
<ellipse fill="none" stroke="#000000" cx="1034.4856" cy="-832.3" rx="3.5" ry="3.5"/>
<text text-anchor="middle" x="1018.4856" y="-839.6" font-family="Times,serif" font-size="14.00" fill="#000000">map</text>
</g>
<!-- v2&#45;&gt;v6 -->
<g id="edge4" class="edge">
<title>v2&#45;&gt;v6</title>
<path fill="none" stroke="#000000" d="M1033.5189,-940.6702C1033.6493,-926.0439 1034.1302,-872.1381 1034.3607,-846.2956"/>
<polygon fill="#000000" stroke="#000000" points="1037.8617,-846.1896 1034.4512,-836.1587 1030.862,-846.1271 1037.8617,-846.1896"/>
</g>
<!-- v5 -->
<g id="node7" class="node">
<title>v5</title>
<ellipse fill="none" stroke="#000000" cx="1077.4856" cy="-807.3" rx="3.5" ry="3.5"/>
<text text-anchor="middle" x="1061.4856" y="-814.6" font-family="Times,serif" font-size="14.00" fill="#000000">map</text>
</g>
<!-- v4&#45;&gt;v5 -->
<g id="edge6" class="edge">
<title>v4&#45;&gt;v5</title>
<path fill="none" stroke="#000000" d="M1080.35,-853.4894C1079.7077,-843.1309 1078.9179,-830.3965 1078.3305,-820.9241"/>
<polygon fill="#000000" stroke="#000000" points="1081.8165,-820.5893 1077.7042,-810.8251 1074.83,-821.0226 1081.8165,-820.5893"/>
</g>
<!-- v7 -->
<g id="node8" class="node">
<title>v7</title>
<ellipse fill="none" stroke="#000000" cx="1055.4856" cy="-763.2" rx="3.5" ry="3.5"/>
<text text-anchor="middle" x="1033.9856" y="-770.5" font-family="Times,serif" font-size="14.00" fill="#000000">concat</text>
</g>
<!-- v6&#45;&gt;v7 -->
<g id="edge8" class="edge">
<title>v6&#45;&gt;v7</title>
<path fill="none" stroke="#000000" d="M1035.6146,-828.5849C1038.5474,-818.9346 1046.5195,-792.7026 1051.4286,-776.5494"/>
<polygon fill="#000000" stroke="#000000" points="1054.8923,-777.1888 1054.4514,-766.6031 1048.1948,-775.1533 1054.8923,-777.1888"/>
</g>
<!-- v3 -->
<g id="node6" class="node">
<title>v3</title>
<ellipse fill="#000000" stroke="#000000" cx="1081.4856" cy="-944.4" rx="3.6" ry="3.6"/>
</g>
<!-- v3&#45;&gt;v4 -->
<g id="edge5" class="edge">
<title>v3&#45;&gt;v4</title>
<path fill="none" stroke="#000000" d="M1081.4856,-940.4967C1081.4856,-932.8869 1081.4856,-915.4632 1081.4856,-900.0684"/>
<polygon fill="#000000" stroke="#000000" points="1084.9857,-899.8802 1081.4856,-889.8802 1077.9857,-899.8802 1084.9857,-899.8802"/>
<text text-anchor="middle" x="1109.9856" y="-911.6" font-family="Times,serif" font-size="14.00" fill="#000000">extra_args</text>
</g>
<!-- v5&#45;&gt;v7 -->
<g id="edge7" class="edge">
<title>v5&#45;&gt;v7</title>
<path fill="none" stroke="#000000" d="M1075.9034,-804.1284C1072.9542,-798.2166 1066.4742,-785.2272 1061.6002,-775.457"/>
<polygon fill="#000000" stroke="#000000" points="1064.6494,-773.7287 1057.0534,-766.3428 1058.3856,-776.8536 1064.6494,-773.7287"/>
</g>
<!-- v11 -->
<g id="node9" class="node">
<title>v11</title>
<ellipse fill="none" stroke="#000000" cx="1123.4856" cy="-690.6" rx="3.5" ry="3.5"/>
<text text-anchor="middle" x="1107.4856" y="-697.9" font-family="Times,serif" font-size="14.00" fill="#000000">map</text>
</g>
<!-- v7&#45;&gt;v11 -->
<g id="edge9" class="edge">
<title>v7&#45;&gt;v11</title>
<path fill="none" stroke="#000000" d="M1059.1071,-762.4309C1067.6137,-760.4488 1089.0852,-754.4004 1101.4856,-741.6 1111.5371,-731.2241 1117.3585,-715.5266 1120.4584,-704.2893"/>
<polygon fill="#000000" stroke="#000000" points="1123.9232,-704.8468 1122.8254,-694.309 1117.1121,-703.2314 1123.9232,-704.8468"/>
<text text-anchor="middle" x="1134.9856" y="-730.4" font-family="Times,serif" font-size="14.00" fill="#000000">samples</text>
</g>
<!-- v14 -->
<g id="node18" class="node">
<title>v14</title>
<ellipse fill="none" stroke="#000000" cx="1055.4856" cy="-690.6" rx="3.5" ry="3.5"/>
<text text-anchor="middle" x="1039.4856" y="-697.9" font-family="Times,serif" font-size="14.00" fill="#000000">map</text>
</g>
<!-- v7&#45;&gt;v14 -->
<g id="edge16" class="edge">
<title>v7&#45;&gt;v14</title>
<path fill="none" stroke="#000000" d="M1055.4856,-759.6984C1055.4856,-749.8521 1055.4856,-721.5232 1055.4856,-704.3484"/>
<polygon fill="#000000" stroke="#000000" points="1058.9857,-704.2375 1055.4856,-694.2375 1051.9857,-704.2376 1058.9857,-704.2375"/>
<text text-anchor="middle" x="1077.9856" y="-730.4" font-family="Times,serif" font-size="14.00" fill="#000000">samples</text>
</g>
<!-- v23 -->
<g id="node27" class="node">
<title>v23</title>
<ellipse fill="none" stroke="#000000" cx="987.4856" cy="-690.6" rx="3.5" ry="3.5"/>
<text text-anchor="middle" x="971.4856" y="-697.9" font-family="Times,serif" font-size="14.00" fill="#000000">map</text>
</g>
<!-- v7&#45;&gt;v23 -->
<g id="edge24" class="edge">
<title>v7&#45;&gt;v23</title>
<path fill="none" stroke="#000000" d="M1051.8524,-762.5963C1042.8873,-760.9215 1019.4978,-755.3975 1006.4856,-741.6 996.7737,-731.3019 991.9218,-715.5911 989.5678,-704.3294"/>
<polygon fill="#000000" stroke="#000000" points="992.9946,-703.6018 987.882,-694.3221 986.0919,-704.7647 992.9946,-703.6018"/>
<text text-anchor="middle" x="1028.9856" y="-730.4" font-family="Times,serif" font-size="14.00" fill="#000000">samples</text>
</g>
<!-- v12 -->
<g id="node15" class="node">
<title>v12</title>
<ellipse fill="none" stroke="#000000" cx="1123.4856" cy="-603.6" rx="3.5" ry="3.5"/>
<text text-anchor="middle" x="1090.9856" y="-610.9" font-family="Times,serif" font-size="14.00" fill="#000000">collectFile</text>
</g>
<!-- v11&#45;&gt;v12 -->
<g id="edge13" class="edge">
<title>v11&#45;&gt;v12</title>
<path fill="none" stroke="#000000" d="M1123.4856,-686.8617C1123.4856,-675.0107 1123.4856,-637.8578 1123.4856,-617.4184"/>
<polygon fill="#000000" stroke="#000000" points="1126.9857,-617.2275 1123.4856,-607.2275 1119.9857,-617.2276 1126.9857,-617.2275"/>
</g>
<!-- v8 -->
<g id="node10" class="node">
<title>v8</title>
<ellipse fill="#000000" stroke="#000000" cx="908.4856" cy="-603.6" rx="3.6" ry="3.6"/>
<text text-anchor="middle" x="946.8856" y="-611" font-family="Times,serif" font-size="14.00" fill="#000000">Channel.empty</text>
</g>
<!-- v32 -->
<g id="node11" class="node">
<title>v32</title>
<ellipse fill="none" stroke="#000000" cx="869.4856" cy="-531.1" rx="3.5" ry="3.5"/>
<text text-anchor="middle" x="854.9856" y="-538.4" font-family="Times,serif" font-size="14.00" fill="#000000">mix</text>
</g>
<!-- v8&#45;&gt;v32 -->
<g id="edge10" class="edge">
<title>v8&#45;&gt;v32</title>
<path fill="none" stroke="#000000" d="M906.6045,-600.1032C901.1626,-589.9867 885.2107,-560.3325 876.0877,-543.3732"/>
<polygon fill="#000000" stroke="#000000" points="879.0776,-541.5432 871.2579,-534.3946 872.913,-544.8594 879.0776,-541.5432"/>
<text text-anchor="middle" x="911.9856" y="-556.4" font-family="Times,serif" font-size="14.00" fill="#000000">lineages</text>
</g>
<!-- v34 -->
<g id="node35" class="node">
<title>v34</title>
<ellipse fill="none" stroke="#000000" cx="584.4856" cy="-473.1" rx="3.5" ry="3.5"/>
<text text-anchor="middle" x="558.9856" y="-480.4" font-family="Times,serif" font-size="14.00" fill="#000000">flatMap</text>
</g>
<!-- v32&#45;&gt;v34 -->
<g id="edge34" class="edge">
<title>v32&#45;&gt;v34</title>
<path fill="none" stroke="#000000" d="M865.8821,-530.3667C837.5468,-524.6002 650.3093,-486.4957 598.0245,-475.8553"/>
<polygon fill="#000000" stroke="#000000" points="598.5057,-472.3816 588.0086,-473.817 597.1097,-479.241 598.5057,-472.3816"/>
<text text-anchor="middle" x="783.9856" y="-498.4" font-family="Times,serif" font-size="14.00" fill="#000000">lineages</text>
</g>
<!-- v40 -->
<g id="node43" class="node">
<title>v40</title>
<ellipse fill="none" stroke="#000000" cx="915.4856" cy="-473.1" rx="3.5" ry="3.5"/>
<text text-anchor="middle" x="889.9856" y="-480.4" font-family="Times,serif" font-size="14.00" fill="#000000">flatMap</text>
</g>
<!-- v32&#45;&gt;v40 -->
<g id="edge42" class="edge">
<title>v32&#45;&gt;v40</title>
<path fill="none" stroke="#000000" d="M871.7043,-528.3025C877.943,-520.4364 895.8924,-497.8045 906.7745,-484.0835"/>
<polygon fill="#000000" stroke="#000000" points="909.7091,-486.0159 913.1808,-476.006 904.2246,-481.6661 909.7091,-486.0159"/>
<text text-anchor="middle" x="920.9856" y="-498.4" font-family="Times,serif" font-size="14.00" fill="#000000">lineages</text>
</g>
<!-- v9 -->
<g id="node12" class="node">
<title>v9</title>
<ellipse fill="#000000" stroke="#000000" cx="505.4856" cy="-763.2" rx="3.6" ry="3.6"/>
</g>
<!-- v10 -->
<g id="node13" class="node">
<title>v10</title>
<ellipse fill="none" stroke="#000000" cx="505.4856" cy="-690.6" rx="141.8751" ry="18"/>
<text text-anchor="middle" x="505.4856" y="-686.9" font-family="Times,serif" font-size="14.00" fill="#000000">minimap_pipeline:unpackTaxonomy</text>
</g>
<!-- v9&#45;&gt;v10 -->
<g id="edge11" class="edge">
<title>v9&#45;&gt;v10</title>
<path fill="none" stroke="#000000" d="M505.4856,-759.2967C505.4856,-751.6869 505.4856,-734.2632 505.4856,-718.8684"/>
<polygon fill="#000000" stroke="#000000" points="508.9857,-718.6802 505.4856,-708.6802 501.9857,-718.6802 508.9857,-718.6802"/>
<text text-anchor="middle" x="532.9856" y="-730.4" font-family="Times,serif" font-size="14.00" fill="#000000">taxonomy</text>
</g>
<!-- v28 -->
<g id="node14" class="node">
<title>v28</title>
<ellipse fill="none" stroke="#000000" cx="776.4856" cy="-603.6" rx="110.4804" ry="18"/>
<text text-anchor="middle" x="776.4856" y="-599.9" font-family="Times,serif" font-size="14.00" fill="#000000">minimap_pipeline:minimap</text>
</g>
<!-- v10&#45;&gt;v28 -->
<g id="edge12" class="edge">
<title>v10&#45;&gt;v28</title>
<path fill="none" stroke="#000000" d="M557.7371,-673.8255C603.2077,-659.228 669.0988,-638.0747 716.6686,-622.8032"/>
<polygon fill="#000000" stroke="#000000" points="717.7753,-626.124 726.2269,-619.7347 715.6356,-619.459 717.7753,-626.124"/>
</g>
<!-- v28&#45;&gt;v32 -->
<g id="edge33" class="edge">
<title>v28&#45;&gt;v32</title>
<path fill="none" stroke="#000000" d="M799.4744,-585.6786C818.3543,-570.9604 844.2516,-550.7717 858.6716,-539.5302"/>
<polygon fill="#000000" stroke="#000000" points="860.8591,-542.2629 866.5939,-533.3543 856.5553,-536.7422 860.8591,-542.2629"/>
</g>
<!-- v31 -->
<g id="node32" class="node">
<title>v31</title>
<ellipse fill="#000000" stroke="#000000" cx="801.4856" cy="-531.1" rx="1.8" ry="1.8"/>
</g>
<!-- v28&#45;&gt;v31 -->
<g id="edge30" class="edge">
<title>v28&#45;&gt;v31</title>
<path fill="none" stroke="#000000" d="M782.7941,-585.3052C787.4184,-571.8948 793.5551,-554.0985 797.5127,-542.6215"/>
<polygon fill="#000000" stroke="#000000" points="800.9071,-543.514 800.8582,-532.9193 794.2895,-541.2321 800.9071,-543.514"/>
</g>
<!-- v30 -->
<g id="node33" class="node">
<title>v30</title>
<ellipse fill="#000000" stroke="#000000" cx="751.4856" cy="-531.1" rx="1.8" ry="1.8"/>
</g>
<!-- v28&#45;&gt;v30 -->
<g id="edge31" class="edge">
<title>v28&#45;&gt;v30</title>
<path fill="none" stroke="#000000" d="M770.177,-585.3052C765.5528,-571.8948 759.4161,-554.0985 755.4585,-542.6215"/>
<polygon fill="#000000" stroke="#000000" points="758.6817,-541.2321 752.1129,-532.9193 752.0641,-543.514 758.6817,-541.2321"/>
</g>
<!-- v29 -->
<g id="node34" class="node">
<title>v29</title>
<ellipse fill="#000000" stroke="#000000" cx="776.4856" cy="-531.1" rx="1.8" ry="1.8"/>
</g>
<!-- v28&#45;&gt;v29 -->
<g id="edge32" class="edge">
<title>v28&#45;&gt;v29</title>
<path fill="none" stroke="#000000" d="M776.4856,-585.3052C776.4856,-572.039 776.4856,-554.4807 776.4856,-542.9939"/>
<polygon fill="#000000" stroke="#000000" points="779.9857,-542.9193 776.4856,-532.9193 772.9857,-542.9193 779.9857,-542.9193"/>
</g>
<!-- v13 -->
<g id="node16" class="node">
<title>v13</title>
<ellipse fill="none" stroke="#000000" cx="1123.4856" cy="-502.1" rx="3.5" ry="3.5"/>
<text text-anchor="middle" x="1096.9856" y="-509.4" font-family="Times,serif" font-size="14.00" fill="#000000">ifEmpty</text>
</g>
<!-- v12&#45;&gt;v13 -->
<g id="edge14" class="edge">
<title>v12&#45;&gt;v13</title>
<path fill="none" stroke="#000000" d="M1123.4856,-599.745C1123.4856,-586.1166 1123.4856,-539.7627 1123.4856,-516.1588"/>
<polygon fill="#000000" stroke="#000000" points="1126.9857,-515.9588 1123.4856,-505.9588 1119.9857,-515.9589 1126.9857,-515.9588"/>
</g>
<!-- v44 -->
<g id="node17" class="node">
<title>v44</title>
<ellipse fill="none" stroke="#000000" cx="1059.4856" cy="-261.6" rx="121.5784" ry="18"/>
<text text-anchor="middle" x="1059.4856" y="-257.9" font-family="Times,serif" font-size="14.00" fill="#000000">minimap_pipeline:makeReport</text>
</g>
<!-- v13&#45;&gt;v44 -->
<g id="edge15" class="edge">
<title>v13&#45;&gt;v44</title>
<path fill="none" stroke="#000000" d="M1123.4856,-498.3885C1123.4856,-489.9753 1123.4856,-468.8083 1123.4856,-451.1 1123.4856,-451.1 1123.4856,-451.1 1123.4856,-348.6 1123.4856,-324.2093 1106.9618,-302.1433 1090.7064,-286.3369"/>
<polygon fill="#000000" stroke="#000000" points="1093.043,-283.7306 1083.3168,-279.5291 1088.3,-288.8789 1093.043,-283.7306"/>
<text text-anchor="middle" x="1162.9856" y="-421.4" font-family="Times,serif" font-size="14.00" fill="#000000">per_read_stats</text>
</g>
<!-- v46 -->
<g id="node46" class="node">
<title>v46</title>
<ellipse fill="none" stroke="#000000" cx="858.4856" cy="-189.1" rx="3.5" ry="3.5"/>
<text text-anchor="middle" x="843.9856" y="-196.4" font-family="Times,serif" font-size="14.00" fill="#000000">mix</text>
</g>
<!-- v44&#45;&gt;v46 -->
<g id="edge47" class="edge">
<title>v44&#45;&gt;v46</title>
<path fill="none" stroke="#000000" d="M1013.1197,-244.876C967.2663,-228.3368 899.9833,-204.0681 871.7383,-193.8802"/>
<polygon fill="#000000" stroke="#000000" points="872.794,-190.5403 862.1996,-190.4396 870.4188,-197.1251 872.794,-190.5403"/>
<text text-anchor="middle" x="974.9856" y="-214.4" font-family="Times,serif" font-size="14.00" fill="#000000">$out0</text>
</g>
<!-- v15 -->
<g id="node19" class="node">
<title>v15</title>
<ellipse fill="none" stroke="#000000" cx="1055.4856" cy="-603.6" rx="3.5" ry="3.5"/>
<text text-anchor="middle" x="1035.9856" y="-610.9" font-family="Times,serif" font-size="14.00" fill="#000000">toList</text>
</g>
<!-- v14&#45;&gt;v15 -->
<g id="edge17" class="edge">
<title>v14&#45;&gt;v15</title>
<path fill="none" stroke="#000000" d="M1055.4856,-686.8617C1055.4856,-675.0107 1055.4856,-637.8578 1055.4856,-617.4184"/>
<polygon fill="#000000" stroke="#000000" points="1058.9857,-617.2275 1055.4856,-607.2275 1051.9857,-617.2276 1058.9857,-617.2275"/>
</g>
<!-- v16 -->
<g id="node20" class="node">
<title>v16</title>
<ellipse fill="#000000" stroke="#000000" cx="1055.4856" cy="-531.1" rx="1.8" ry="1.8"/>
</g>
<!-- v15&#45;&gt;v16 -->
<g id="edge18" class="edge">
<title>v15&#45;&gt;v16</title>
<path fill="none" stroke="#000000" d="M1055.4856,-599.7021C1055.4856,-589.224 1055.4856,-560.1143 1055.4856,-543.3736"/>
<polygon fill="#000000" stroke="#000000" points="1058.9857,-542.9011 1055.4856,-532.9012 1051.9857,-542.9012 1058.9857,-542.9011"/>
<text text-anchor="middle" x="1080.4856" y="-556.4" font-family="Times,serif" font-size="14.00" fill="#000000">metadata</text>
</g>
<!-- v17 -->
<g id="node21" class="node">
<title>v17</title>
<ellipse fill="#000000" stroke="#000000" cx="1189.4856" cy="-1075.6" rx="3.6" ry="3.6"/>
</g>
<!-- v19 -->
<g id="node22" class="node">
<title>v19</title>
<ellipse fill="none" stroke="#000000" cx="1226.4856" cy="-1003" rx="171.6696" ry="18"/>
<text text-anchor="middle" x="1226.4856" y="-999.3" font-family="Times,serif" font-size="14.00" fill="#000000">minimap_pipeline:check_reference_ref2taxid</text>
</g>
<!-- v17&#45;&gt;v19 -->
<g id="edge19" class="edge">
<title>v17&#45;&gt;v19</title>
<path fill="none" stroke="#000000" d="M1188.7373,-1071.9833C1187.5111,-1065.1928 1185.6615,-1050.2107 1190.4856,-1039 1192.0523,-1035.3591 1194.1748,-1031.8891 1196.6102,-1028.6419"/>
<polygon fill="#000000" stroke="#000000" points="1199.2751,-1030.9111 1203.1706,-1021.0584 1193.9811,-1026.3313 1199.2751,-1030.9111"/>
<text text-anchor="middle" x="1215.9856" y="-1042.8" font-family="Times,serif" font-size="14.00" fill="#000000">reference</text>
</g>
<!-- v20 -->
<g id="node24" class="node">
<title>v20</title>
<ellipse fill="#000000" stroke="#000000" cx="1226.4856" cy="-944.4" rx="1.8" ry="1.8"/>
</g>
<!-- v19&#45;&gt;v20 -->
<g id="edge21" class="edge">
<title>v19&#45;&gt;v20</title>
<path fill="none" stroke="#000000" d="M1226.4856,-984.7798C1226.4856,-975.5425 1226.4856,-964.5821 1226.4856,-956.4128"/>
<polygon fill="#000000" stroke="#000000" points="1229.9857,-956.306 1226.4856,-946.3061 1222.9857,-956.3061 1229.9857,-956.306"/>
</g>
<!-- v18 -->
<g id="node23" class="node">
<title>v18</title>
<ellipse fill="#000000" stroke="#000000" cx="1263.4856" cy="-1075.6" rx="3.6" ry="3.6"/>
</g>
<!-- v18&#45;&gt;v19 -->
<g id="edge20" class="edge">
<title>v18&#45;&gt;v19</title>
<path fill="none" stroke="#000000" d="M1261.701,-1072.0984C1257.8395,-1064.5216 1248.4004,-1046.0005 1240.2659,-1030.0392"/>
<polygon fill="#000000" stroke="#000000" points="1243.3384,-1028.3597 1235.6792,-1021.0393 1237.1016,-1031.5383 1243.3384,-1028.3597"/>
<text text-anchor="middle" x="1276.9856" y="-1042.8" font-family="Times,serif" font-size="14.00" fill="#000000">ref2taxid</text>
</g>
<!-- v21 -->
<g id="node25" class="node">
<title>v21</title>
<ellipse fill="none" stroke="#000000" cx="513.4856" cy="-348.6" rx="170.0701" ry="18"/>
<text text-anchor="middle" x="513.4856" y="-344.9" font-family="Times,serif" font-size="14.00" fill="#000000">minimap_pipeline:run_common:getVersions</text>
</g>
<!-- v21&#45;&gt;v44 -->
<g id="edge22" class="edge">
<title>v21&#45;&gt;v44</title>
<path fill="none" stroke="#000000" d="M607.6571,-333.5947C708.0814,-317.593 866.152,-292.4059 966.2258,-276.4601"/>
<polygon fill="#000000" stroke="#000000" points="967.0019,-279.8807 976.3265,-274.8506 965.9003,-272.9679 967.0019,-279.8807"/>
<text text-anchor="middle" x="868.9856" y="-301.4" font-family="Times,serif" font-size="14.00" fill="#000000">software_versions</text>
</g>
<!-- v21&#45;&gt;v46 -->
<g id="edge50" class="edge">
<title>v21&#45;&gt;v46</title>
<path fill="none" stroke="#000000" d="M551.7248,-330.9213C628.5488,-295.4041 798.351,-216.9013 845.8951,-194.9208"/>
<polygon fill="#000000" stroke="#000000" points="847.4332,-198.0657 855.0413,-190.6923 844.4956,-191.7119 847.4332,-198.0657"/>
<text text-anchor="middle" x="786.9856" y="-257.9" font-family="Times,serif" font-size="14.00" fill="#000000">software_versions</text>
</g>
<!-- v22 -->
<g id="node26" class="node">
<title>v22</title>
<ellipse fill="none" stroke="#000000" cx="866.4856" cy="-348.6" rx="165.1707" ry="18"/>
<text text-anchor="middle" x="866.4856" y="-344.9" font-family="Times,serif" font-size="14.00" fill="#000000">minimap_pipeline:run_common:getParams</text>
</g>
<!-- v22&#45;&gt;v44 -->
<g id="edge23" class="edge">
<title>v22&#45;&gt;v44</title>
<path fill="none" stroke="#000000" d="M905.542,-330.9943C936.319,-317.1207 979.3527,-297.7221 1012.0988,-282.9609"/>
<polygon fill="#000000" stroke="#000000" points="1013.7956,-286.0352 1021.4738,-278.7348 1010.9189,-279.6536 1013.7956,-286.0352"/>
<text text-anchor="middle" x="1005.9856" y="-301.4" font-family="Times,serif" font-size="14.00" fill="#000000">parameters</text>
</g>
<!-- v22&#45;&gt;v46 -->
<g id="edge49" class="edge">
<title>v22&#45;&gt;v46</title>
<path fill="none" stroke="#000000" d="M865.5679,-330.3033C863.9519,-298.0852 860.633,-231.9145 859.186,-203.0643"/>
<polygon fill="#000000" stroke="#000000" points="862.6748,-202.7512 858.6781,-192.9391 855.6836,-203.1019 862.6748,-202.7512"/>
<text text-anchor="middle" x="893.9856" y="-257.9" font-family="Times,serif" font-size="14.00" fill="#000000">parameters</text>
</g>
<!-- v23&#45;&gt;v28 -->
<g id="edge25" class="edge">
<title>v23&#45;&gt;v28</title>
<path fill="none" stroke="#000000" d="M986.4865,-687.1975C983.5701,-677.9046 974.1381,-651.9643 956.4856,-639.6 948.4355,-633.9615 906.3468,-625.3977 864.8936,-618.0372"/>
<polygon fill="#000000" stroke="#000000" points="865.4086,-614.5742 854.954,-616.2923 864.1982,-621.4688 865.4086,-614.5742"/>
</g>
<!-- v24 -->
<g id="node28" class="node">
<title>v24</title>
<ellipse fill="#000000" stroke="#000000" cx="668.4856" cy="-690.6" rx="3.6" ry="3.6"/>
</g>
<!-- v24&#45;&gt;v28 -->
<g id="edge26" class="edge">
<title>v24&#45;&gt;v28</title>
<path fill="none" stroke="#000000" d="M668.6849,-686.8537C669.3734,-677.6031 672.3976,-653.4278 685.4856,-639.6 691.5952,-633.145 699.0078,-627.8249 706.9357,-623.4453"/>
<polygon fill="#000000" stroke="#000000" points="708.6788,-626.4871 716.0635,-618.8899 705.553,-620.2238 708.6788,-626.4871"/>
<text text-anchor="middle" x="710.9856" y="-643.4" font-family="Times,serif" font-size="14.00" fill="#000000">reference</text>
</g>
<!-- v25 -->
<g id="node29" class="node">
<title>v25</title>
<ellipse fill="#000000" stroke="#000000" cx="742.4856" cy="-690.6" rx="3.6" ry="3.6"/>
</g>
<!-- v25&#45;&gt;v28 -->
<g id="edge27" class="edge">
<title>v25&#45;&gt;v28</title>
<path fill="none" stroke="#000000" d="M741.7129,-686.9665C740.0582,-678.3599 736.8373,-656.2076 743.4856,-639.6 744.8917,-636.0874 746.8104,-632.7056 749.0201,-629.5156"/>
<polygon fill="#000000" stroke="#000000" points="751.8727,-631.5529 755.3973,-621.5616 746.4113,-627.1742 751.8727,-631.5529"/>
<text text-anchor="middle" x="766.4856" y="-643.4" font-family="Times,serif" font-size="14.00" fill="#000000">refindex</text>
</g>
<!-- v26 -->
<g id="node30" class="node">
<title>v26</title>
<ellipse fill="#000000" stroke="#000000" cx="811.4856" cy="-690.6" rx="3.6" ry="3.6"/>
</g>
<!-- v26&#45;&gt;v28 -->
<g id="edge28" class="edge">
<title>v26&#45;&gt;v28</title>
<path fill="none" stroke="#000000" d="M809.9817,-686.8617C806.1586,-677.3586 795.7902,-651.5857 787.5921,-631.2076"/>
<polygon fill="#000000" stroke="#000000" points="790.7596,-629.7032 783.7801,-621.7322 784.2654,-632.3159 790.7596,-629.7032"/>
<text text-anchor="middle" x="820.9856" y="-643.4" font-family="Times,serif" font-size="14.00" fill="#000000">ref2taxid</text>
</g>
<!-- v27 -->
<g id="node31" class="node">
<title>v27</title>
<ellipse fill="#000000" stroke="#000000" cx="883.4856" cy="-690.6" rx="3.6" ry="3.6"/>
</g>
<!-- v27&#45;&gt;v28 -->
<g id="edge29" class="edge">
<title>v27&#45;&gt;v28</title>
<path fill="none" stroke="#000000" d="M881.9865,-687.1786C877.9364,-678.273 865.9593,-654.0623 849.4856,-639.6 843.3629,-634.2249 836.2953,-629.4448 829.0189,-625.2645"/>
<polygon fill="#000000" stroke="#000000" points="830.2127,-621.9331 819.7459,-620.2905 826.9038,-628.1018 830.2127,-621.9331"/>
<text text-anchor="middle" x="907.9856" y="-643.4" font-family="Times,serif" font-size="14.00" fill="#000000">taxonomic_rank</text>
</g>
<!-- v35 -->
<g id="node38" class="node">
<title>v35</title>
<ellipse fill="none" stroke="#000000" cx="166.4856" cy="-425.1" rx="3.5" ry="3.5"/>
<text text-anchor="middle" x="144.4856" y="-432.4" font-family="Times,serif" font-size="14.00" fill="#000000">collect</text>
</g>
<!-- v34&#45;&gt;v35 -->
<g id="edge36" class="edge">
<title>v34&#45;&gt;v35</title>
<path fill="none" stroke="#000000" d="M580.9218,-472.9077C545.9482,-470.9958 263.6241,-455.0009 182.4856,-432.6 181.3027,-432.2734 180.0989,-431.8658 178.9095,-431.4104"/>
<polygon fill="#000000" stroke="#000000" points="180.0821,-428.0911 169.552,-426.922 177.0547,-434.4026 180.0821,-428.0911"/>
</g>
<!-- v33 -->
<g id="node36" class="node">
<title>v33</title>
<ellipse fill="#000000" stroke="#000000" cx="1260.4856" cy="-425.1" rx="3.6" ry="3.6"/>
<text text-anchor="middle" x="1298.8856" y="-432.5" font-family="Times,serif" font-size="14.00" fill="#000000">Channel.empty</text>
</g>
<!-- v39 -->
<g id="node37" class="node">
<title>v39</title>
<ellipse fill="none" stroke="#000000" cx="1260.4856" cy="-348.6" rx="3.5" ry="3.5"/>
<text text-anchor="middle" x="1233.9856" y="-355.9" font-family="Times,serif" font-size="14.00" fill="#000000">ifEmpty</text>
</g>
<!-- v33&#45;&gt;v39 -->
<g id="edge35" class="edge">
<title>v33&#45;&gt;v39</title>
<path fill="none" stroke="#000000" d="M1260.4856,-421.4102C1260.4856,-410.9343 1260.4856,-380.6029 1260.4856,-362.5632"/>
<polygon fill="#000000" stroke="#000000" points="1263.9857,-362.4329 1260.4856,-352.4329 1256.9857,-362.433 1263.9857,-362.4329"/>
<text text-anchor="middle" x="1310.4856" y="-388.4" font-family="Times,serif" font-size="14.00" fill="#000000">alignment_reports</text>
</g>
<!-- v39&#45;&gt;v44 -->
<g id="edge41" class="edge">
<title>v39&#45;&gt;v44</title>
<path fill="none" stroke="#000000" d="M1260.0619,-344.9547C1258.7597,-335.5088 1253.9189,-310.106 1238.4856,-297.6 1231.2061,-291.7013 1192.4709,-283.5725 1152.8875,-276.5316"/>
<polygon fill="#000000" stroke="#000000" points="1153.2785,-273.0469 1142.8242,-274.767 1152.0694,-279.9417 1153.2785,-273.0469"/>
</g>
<!-- v37 -->
<g id="node39" class="node">
<title>v37</title>
<ellipse fill="none" stroke="#000000" cx="162.4856" cy="-348.6" rx="162.4712" ry="18"/>
<text text-anchor="middle" x="162.4856" y="-344.9" font-family="Times,serif" font-size="14.00" fill="#000000">minimap_pipeline:createAbundanceTables</text>
</g>
<!-- v35&#45;&gt;v37 -->
<g id="edge37" class="edge">
<title>v35&#45;&gt;v37</title>
<path fill="none" stroke="#000000" d="M166.2927,-421.4102C165.8739,-413.4022 164.8485,-393.7917 163.9673,-376.9385"/>
<polygon fill="#000000" stroke="#000000" points="167.4615,-376.7333 163.444,-366.9297 160.471,-377.0989 167.4615,-376.7333"/>
</g>
<!-- v37&#45;&gt;v44 -->
<g id="edge39" class="edge">
<title>v37&#45;&gt;v44</title>
<path fill="none" stroke="#000000" d="M279.4979,-336.0704C297.894,-334.1826 316.7023,-332.3003 334.4856,-330.6 596.05,-305.5914 662.2871,-308.1787 923.4856,-279.6 935.5352,-278.2816 948.1691,-276.776 960.6785,-275.2097"/>
<polygon fill="#000000" stroke="#000000" points="961.1903,-278.6729 970.6707,-273.943 960.3099,-271.7285 961.1903,-278.6729"/>
</g>
<!-- v37&#45;&gt;v46 -->
<g id="edge51" class="edge">
<title>v37&#45;&gt;v46</title>
<path fill="none" stroke="#000000" d="M233.3752,-332.3545C392.3481,-295.9232 769.3439,-209.5283 845.0934,-192.169"/>
<polygon fill="#000000" stroke="#000000" points="845.8884,-195.5777 854.8539,-189.9323 844.3247,-188.7545 845.8884,-195.5777"/>
</g>
<!-- v36 -->
<g id="node40" class="node">
<title>v36</title>
<ellipse fill="#000000" stroke="#000000" cx="195.4856" cy="-425.1" rx="3.6" ry="3.6"/>
</g>
<!-- v36&#45;&gt;v37 -->
<g id="edge38" class="edge">
<title>v36&#45;&gt;v37</title>
<path fill="none" stroke="#000000" d="M193.8939,-421.4102C190.3854,-413.2767 181.7138,-393.1745 174.3693,-376.1486"/>
<polygon fill="#000000" stroke="#000000" points="177.4221,-374.389 170.2474,-366.5933 170.9946,-377.1617 177.4221,-374.389"/>
<text text-anchor="middle" x="228.9856" y="-388.4" font-family="Times,serif" font-size="14.00" fill="#000000">taxonomic_rank</text>
</g>
<!-- v38 -->
<g id="node41" class="node">
<title>v38</title>
<ellipse fill="#000000" stroke="#000000" cx="1041.4856" cy="-425.1" rx="3.6" ry="3.6"/>
<text text-anchor="middle" x="995.8856" y="-432.5" font-family="Times,serif" font-size="14.00" fill="#000000">Channel.empty</text>
</g>
<!-- v42 -->
<g id="node42" class="node">
<title>v42</title>
<ellipse fill="none" stroke="#000000" cx="1091.4856" cy="-348.6" rx="3.5" ry="3.5"/>
<text text-anchor="middle" x="1064.9856" y="-355.9" font-family="Times,serif" font-size="14.00" fill="#000000">ifEmpty</text>
</g>
<!-- v38&#45;&gt;v42 -->
<g id="edge40" class="edge">
<title>v38&#45;&gt;v42</title>
<path fill="none" stroke="#000000" d="M1040.467,-421.4233C1038.6065,-413.9003 1035.4607,-396.4612 1042.4856,-384.6 1050.6043,-370.8919 1060.8579,-376.3143 1073.4856,-366.6 1076.4718,-364.3028 1079.4652,-361.5394 1082.1299,-358.8752"/>
<polygon fill="#000000" stroke="#000000" points="1084.8548,-361.0851 1089.1169,-351.3854 1079.7362,-356.3101 1084.8548,-361.0851"/>
<text text-anchor="middle" x="1075.9856" y="-388.4" font-family="Times,serif" font-size="14.00" fill="#000000">amr_reports</text>
</g>
<!-- v42&#45;&gt;v44 -->
<g id="edge45" class="edge">
<title>v42&#45;&gt;v44</title>
<path fill="none" stroke="#000000" d="M1090.2157,-344.874C1087.3283,-336.4312 1080.0146,-315.2074 1073.4856,-297.6 1072.4801,-294.8885 1071.4161,-292.0689 1070.3418,-289.2546"/>
<polygon fill="#000000" stroke="#000000" points="1073.5863,-287.9402 1066.7199,-279.8715 1067.0559,-290.461 1073.5863,-287.9402"/>
</g>
<!-- v41 -->
<g id="node44" class="node">
<title>v41</title>
<ellipse fill="none" stroke="#000000" cx="970.4856" cy="-392.1" rx="3.5" ry="3.5"/>
<text text-anchor="middle" x="948.4856" y="-399.4" font-family="Times,serif" font-size="14.00" fill="#000000">collect</text>
</g>
<!-- v40&#45;&gt;v41 -->
<g id="edge43" class="edge">
<title>v40&#45;&gt;v41</title>
<path fill="none" stroke="#000000" d="M917.5745,-470.0236C924.9253,-459.1978 949.8461,-422.4963 962.6899,-403.5809"/>
<polygon fill="#000000" stroke="#000000" points="965.6726,-405.4187 968.3946,-395.1795 959.8815,-401.4864 965.6726,-405.4187"/>
</g>
<!-- v41&#45;&gt;v44 -->
<g id="edge44" class="edge">
<title>v41&#45;&gt;v44</title>
<path fill="none" stroke="#000000" d="M974.0796,-391.9752C985.7177,-391.3642 1022.6495,-387.7658 1040.4856,-366.6 1058.3141,-345.4433 1061.8072,-313.2358 1061.6233,-290.0718"/>
<polygon fill="#000000" stroke="#000000" points="1065.1138,-289.7118 1061.3016,-279.8266 1058.1173,-289.9315 1065.1138,-289.7118"/>
</g>
<!-- v43 -->
<g id="node45" class="node">
<title>v43</title>
<ellipse fill="#000000" stroke="#000000" cx="1156.4856" cy="-348.6" rx="3.6" ry="3.6"/>
</g>
<!-- v43&#45;&gt;v44 -->
<g id="edge46" class="edge">
<title>v43&#45;&gt;v44</title>
<path fill="none" stroke="#000000" d="M1155.8179,-344.8982C1153.9917,-335.749 1148.1125,-311.787 1134.4856,-297.6 1129.2579,-292.1574 1123.0398,-287.4369 1116.4535,-283.3703"/>
<polygon fill="#000000" stroke="#000000" points="1117.7341,-280.0751 1107.3022,-278.224 1114.3029,-286.1765 1117.7341,-280.0751"/>
<text text-anchor="middle" x="1189.9856" y="-301.4" font-family="Times,serif" font-size="14.00" fill="#000000">taxonomic_rank</text>
</g>
<!-- v47 -->
<g id="node48" class="node">
<title>v47</title>
<ellipse fill="none" stroke="#000000" cx="858.4856" cy="-145.1" rx="3.5" ry="3.5"/>
<text text-anchor="middle" x="842.4856" y="-152.4" font-family="Times,serif" font-size="14.00" fill="#000000">map</text>
</g>
<!-- v46&#45;&gt;v47 -->
<g id="edge52" class="edge">
<title>v46&#45;&gt;v47</title>
<path fill="none" stroke="#000000" d="M858.4856,-185.3486C858.4856,-179.5686 858.4856,-168.1915 858.4856,-159.0038"/>
<polygon fill="#000000" stroke="#000000" points="861.9857,-158.8419 858.4856,-148.8419 854.9857,-158.842 861.9857,-158.8419"/>
</g>
<!-- v45 -->
<g id="node47" class="node">
<title>v45</title>
<ellipse fill="#000000" stroke="#000000" cx="1202.4856" cy="-261.6" rx="3.6" ry="3.6"/>
<text text-anchor="middle" x="1240.8856" y="-269" font-family="Times,serif" font-size="14.00" fill="#000000">Channel.empty</text>
</g>
<!-- v45&#45;&gt;v46 -->
<g id="edge48" class="edge">
<title>v45&#45;&gt;v46</title>
<path fill="none" stroke="#000000" d="M1201.2087,-258.1922C1199.4607,-254.0303 1195.9074,-247.1121 1190.4856,-243.6 1116.344,-195.5741 1081.669,-224.8304 994.4856,-210.6 949.8854,-203.3202 896.9917,-195.0676 872.3752,-191.2488"/>
<polygon fill="#000000" stroke="#000000" points="872.6915,-187.7561 862.2736,-189.6846 871.6202,-194.6737 872.6915,-187.7561"/>
</g>
<!-- v48 -->
<g id="node49" class="node">
<title>v48</title>
<ellipse fill="none" stroke="#000000" cx="858.4856" cy="-72.6" rx="100.9827" ry="18"/>
<text text-anchor="middle" x="858.4856" y="-68.9" font-family="Times,serif" font-size="14.00" fill="#000000">minimap_pipeline:output</text>
</g>
<!-- v47&#45;&gt;v48 -->
<g id="edge53" class="edge">
<title>v47&#45;&gt;v48</title>
<path fill="none" stroke="#000000" d="M858.4856,-141.2021C858.4856,-133.6027 858.4856,-116.203 858.4856,-100.8295"/>
<polygon fill="#000000" stroke="#000000" points="861.9857,-100.6553 858.4856,-90.6553 854.9857,-100.6553 861.9857,-100.6553"/>
<text text-anchor="middle" x="896.9856" y="-112.4" font-family="Times,serif" font-size="14.00" fill="#000000">ch_to_publish</text>
</g>
<!-- v49 -->
<g id="node50" class="node">
<title>v49</title>
<ellipse fill="#000000" stroke="#000000" cx="858.4856" cy="-1.8" rx="1.8" ry="1.8"/>
</g>
<!-- v48&#45;&gt;v49 -->
<g id="edge54" class="edge">
<title>v48&#45;&gt;v49</title>
<path fill="none" stroke="#000000" d="M858.4856,-54.3672C858.4856,-41.7838 858.4856,-25.3818 858.4856,-14.2703"/>
<polygon fill="#000000" stroke="#000000" points="861.9857,-13.9527 858.4856,-3.9527 854.9857,-13.9527 861.9857,-13.9527"/>
<text text-anchor="middle" x="875.9856" y="-25.4" font-family="Times,serif" font-size="14.00" fill="#000000">fname</text>
</g>
</g>
</svg>
